<svg t="1683642068952" class="icon" viewBox="0 0 1024 1024" version="1.1" xmlns="http://www.w3.org/2000/svg" p-id="7594" width="200" height="200"><path d="M912.3 491.5c-10.7-202.2-174.4-365.9-376.6-376.6C305.9 102.7 115.2 286 115.2 513.2 115.2 733.2 294 912 514 912c227.2 0 410.5-190.7 398.3-420.5zM514 869.3c-202.1 0-365.2-168.9-355.7-373.1 8.5-182.3 156.5-330.3 338.8-338.8 204.2-9.5 373.1 153.6 373.1 355.7-0.1 196.6-159.7 356.2-356.2 356.2z" p-id="7595" data-spm-anchor-id="a313x.7781069.0.i10" class="" fill="#008080"></path><path d="M703 492.4H378.9c1.9-3.5 4.4-6.9 7.4-9.9L504 364.4c8.3-8.4 8.3-21.9 0-30.2-8.4-8.3-21.9-8.3-30.2 0L356 452.4c-33.7 33.9-33.7 88.9 0.1 122.7l117.7 117.7c4.2 4.2 9.6 6.3 15.1 6.3s10.9-2.1 15.1-6.3c8.3-8.3 8.3-21.9 0-30.2L386.3 544.8c-3-3-5.4-6.3-7.4-9.8h324c11.8 0 21.4-9.6 21.4-21.4 0.1-11.7-9.5-21.2-21.3-21.2z" p-id="7596" data-spm-anchor-id="a313x.7781069.0.i11" class="selected" fill="#e1d81c"></path></svg>