<svg t="1683510508795" class="icon" viewBox="0 0 1024 1024" version="1.1" xmlns="http://www.w3.org/2000/svg" p-id="6254" width="200" height="200"><path d="M512.7 1022.5c-68.8 0-135.6-13.5-198.5-40.1-60.7-25.7-115.3-62.5-162.1-109.3C105.2 826.3 68.4 771.7 42.7 711c-26.6-62.9-40-129.7-40-198.5 0-68.8 13.5-135.6 40.1-198.5 25.7-60.7 62.5-115.3 109.3-162.1s101.3-83.7 162-109.4c62.9-26.6 129.7-40 198.6-40S648.3 16 711.2 42.6c60.7 25.7 115.3 62.5 162.1 109.3S956.9 253.3 982.6 314c26.6 62.9 40.1 129.7 40.1 198.5 0 68.8-13.5 135.6-40.1 198.5-25.7 60.7-62.5 115.3-109.3 162.1s-101.4 83.6-162.1 109.3c-62.9 26.6-129.7 40.1-198.5 40.1z m0-980c-259.2 0-470 210.8-470 470s210.8 470 470 470 470-210.8 470-470-210.9-470-470-470z" fill="#5B6388" p-id="6255"></path><path d="M508.1 162.6V445l-204 63.5z" fill="#8891AE" p-id="6256"></path><path d="M508.1 162.6V445l204 63.5z" fill="#5F658C" p-id="6257"></path><path d="M508.1 846.6V650.1l-204-112.5z" fill="#868BB1" p-id="6258"></path><path d="M508.1 846.6V650.1l204-112.5z" fill="#5E648D" p-id="6259"></path><path d="M304.1 508.5l204-94.8v195z" fill="#61668D" p-id="6260"></path><path d="M712.1 508.5l-204-94.8v195z" fill="#404871" p-id="6261"></path></svg>