<svg t="1685536261123" class="icon" viewBox="0 0 1024 1024" version="1.1" xmlns="http://www.w3.org/2000/svg" p-id="3743" data-spm-anchor-id="a313x.7781069.0.i10" width="200" height="200"><path d="M512 173.653333c7.466667 0 14.933333 1.92 21.333333 5.76l256 147.84c13.226667 7.68 21.333333 21.76 21.333334 36.906667v295.68c0 15.146667-8.106667 29.44-21.333334 36.906667l-256 147.84c-6.4 3.84-13.866667 5.76-21.333333 5.76s-14.933333-1.92-21.333333-5.76l-256-147.84c-13.226667-7.68-21.333333-21.76-21.333334-36.906667V364.16c0-15.146667 8.106667-29.44 21.333334-36.906667l256-147.84c6.4-3.626667 13.866667-5.76 21.333333-5.76m0-42.666666c-14.72 0-29.44 3.84-42.666667 11.52l-256 147.84c-26.453333 15.146667-42.666667 43.52-42.666666 73.813333v295.68c0 30.506667 16.213333 58.666667 42.666666 73.813333l256 147.84a84.885333 84.885333 0 0 0 85.333334 0l256-147.84c26.453333-15.146667 42.666667-43.52 42.666666-73.813333V364.16c0-30.506667-16.213333-58.666667-42.666666-73.813333L554.666667 142.506667c-13.226667-7.68-27.946667-11.52-42.666667-11.52z" p-id="3744" data-spm-anchor-id="a313x.7781069.0.i9" class="selected" fill="#0b988f"></path><path d="M512 384c70.613333 0 128 57.386667 128 128s-57.386667 128-128 128-128-57.386667-128-128 57.386667-128 128-128m0-42.666667c-94.293333 0-170.666667 76.373333-170.666667 170.666667s76.373333 170.666667 170.666667 170.666667 170.666667-76.373333 170.666667-170.666667-76.373333-170.666667-170.666667-170.666667z" fill="#FFC43C" p-id="3745"></path></svg>